<?xml version="1.0" encoding="utf-8"?>
<!-- Generator: Adobe Illustrator 16.0.0, SVG Export Plug-In . SVG Version: 6.00 Build 0)  -->
<!DOCTYPE svg PUBLIC "-//W3C//DTD SVG 1.1//EN" "http://www.w3.org/Graphics/SVG/1.1/DTD/svg11.dtd">
<svg version="1.1" id="Layer_1" xmlns="http://www.w3.org/2000/svg" xmlns:xlink="http://www.w3.org/1999/xlink" x="0px" y="0px"
	 width="1398px" height="560px" viewBox="0 0 1398 560" enable-background="new 0 0 1398 560" xml:space="preserve">
<g>
	<path stroke="#0000FF" stroke-width="6" stroke-miterlimit="10" d="M359.841,189.427H184.438c0.499-1.084,0.783-2.29,0.783-3.563
		v-11.402c0-4.725-3.828-8.555-8.552-8.555H126.78c-4.724,0-8.553,3.83-8.553,8.555v11.402c0,1.274,0.285,2.479,0.784,3.563H97.558
		c-4.724,0-8.553,3.83-8.553,8.553v166.065c0,4.725,3.829,8.555,8.553,8.555h262.283c4.724,0,8.552-3.83,8.552-8.555V197.98
		C368.393,193.257,364.565,189.427,359.841,189.427z"/>
	<g>
		<polygon fill="#FFFFFF" stroke="#000000" stroke-miterlimit="10" points="213.439,281.004 200.695,268.259 200.685,268.267 
			145.257,212.839 132.513,225.583 187.94,281.015 132.513,336.438 145.257,349.186 200.688,293.755 200.695,293.766 
			213.439,281.021 213.429,281.015 		"/>
		<rect x="228.461" y="330.485" fill="#FFFFFF" stroke="#000000" stroke-miterlimit="10" width="96.425" height="18.026"/>
	</g>
	<g>
		<path d="M433.775,229.692v35.072h49.491v22.603h-49.491v44.891h67.9v23.621h-94.49v-149.81h95.613v23.623H433.775z"/>
		<path d="M585.736,344.938c-2.318,3.822-6.36,6.938-12.12,9.361c-5.762,2.416-11.778,3.631-18.051,3.631
			c-11.793,0-21.063-2.953-27.814-8.852c-6.75-5.893-10.125-14.262-10.125-25.102c0-12.681,4.756-22.598,14.266-29.76
			c9.51-7.153,23.024-10.738,40.548-10.738c2.997,0,6.543,0.516,10.632,1.535c0-12.885-8.144-19.327-24.439-19.327
			c-9.612,0-17.656,1.602-24.131,4.807l-5.522-19.84c8.794-4.225,19.257-6.34,31.396-6.34c16.701,0,28.936,3.801,36.71,11.404
			c7.771,7.601,11.658,22.005,11.658,43.203v23.42c0,14.587,2.929,23.759,8.794,27.506c-2.116,3.685-4.466,5.953-7.056,6.801
			c-2.591,0.855-5.556,1.283-8.897,1.283c-3.681,0-6.986-1.365-9.919-4.094S586.757,348.141,585.736,344.938z M583.283,304.346
			c-4.365-0.889-7.637-1.33-9.82-1.33c-20.18,0-30.268,6.609-30.268,19.833c0,9.821,5.693,14.729,17.077,14.729
			c15.341,0,23.012-7.67,23.012-23.011V304.346z"/>
		<path d="M629.604,348.827l9.103-20.351c7.633,6.067,16.258,9.102,25.873,9.102c9.951,0,14.93-3.543,14.93-10.635
			c0-4.162-1.5-7.569-4.502-10.23c-2.999-2.654-8.831-5.791-17.484-9.408c-18.885-7.834-28.327-18.816-28.327-32.929
			c0-9.47,3.612-16.854,10.837-22.138c7.227-5.281,16.464-7.925,27.716-7.925c11.384,0,22.088,2.559,32.107,7.67l-7.362,19.84
			c-5.588-4.773-13.36-7.162-23.316-7.162c-8.93,0-13.396,3.55-13.396,10.636c0,2.798,1.466,5.316,4.399,7.569
			c2.93,2.248,9.204,5.268,18.814,9.048c9.613,3.788,16.532,8.372,20.76,13.753c4.229,5.39,6.34,11.9,6.34,19.537
			c0,10.154-3.77,18.15-11.3,23.975c-7.532,5.832-17.776,8.75-30.728,8.75c-7.296,0-13.142-0.598-17.537-1.793
			C642.13,354.943,636.491,352.506,629.604,348.827z"/>
		<path d="M775.02,373.467c-2.729,7.297-8.572,13.346-17.535,18.152c-8.967,4.813-19.416,7.216-31.344,7.216v-22.605
			c19.697,0,29.551-4.942,29.551-14.823c0-6.545-2.725-16.57-8.182-30.066l-34.256-84.98h26.485l29.861,75.675l26.895-75.675h26.486
			L775.02,373.467z"/>
		<path d="M895.791,347.598l9.816-23.826c10.498,7.365,20.824,11.045,30.982,11.045c15.615,0,23.422-5.457,23.422-16.367
			c0-5.111-1.842-9.984-5.525-14.621c-3.68-4.635-11.264-9.829-22.752-15.59c-11.488-5.764-19.223-10.502-23.211-14.216
			c-3.986-3.719-7.057-8.132-9.207-13.243c-2.145-5.114-3.221-10.771-3.221-16.976c0-11.59,4.244-21.203,12.732-28.839
			c8.49-7.633,19.381-11.455,32.674-11.455c17.314,0,30.027,3.242,38.143,9.718l-8.076,22.906
			c-9.344-6.679-19.193-10.022-29.555-10.022c-6.133,0-10.891,1.619-14.266,4.856c-3.375,3.241-5.063,7.449-5.063,12.629
			c0,8.59,9.512,17.522,28.531,26.793c10.023,4.908,17.246,9.429,21.678,13.55c4.43,4.126,7.805,8.933,10.125,14.418
			c2.318,5.491,3.479,11.607,3.479,18.354c0,12.138-4.795,22.129-14.371,29.963c-9.578,7.84-22.41,11.763-38.498,11.763
			C919.652,358.438,907.039,354.826,895.791,347.598z"/>
		<path d="M1079.352,355.879v-67.492c0-6.748-2.115-12.164-6.34-16.258c-4.232-4.093-9.752-6.136-16.57-6.136
			c-4.227,0-8.484,1.141-12.781,3.429c-4.295,2.281-7.361,4.893-9.203,7.819v78.639h-25.973V205.557l25.973-6.136v53.893
			c6.613-6,15.713-9,27.303-9c13.707,0,24.338,3.801,31.906,11.404c7.566,7.601,11.35,18.495,11.35,32.669v67.492H1079.352z"/>
		<path d="M1230.393,308.939h-78.234c0.479,8.73,3.48,15.512,9.002,20.351c5.52,4.849,12.949,7.265,22.293,7.265
			c11.658,0,20.52-3.035,26.588-9.104l9.914,19.536c-8.996,7.291-22.424,10.942-40.287,10.942c-16.701,0-29.91-4.894-39.625-14.676
			c-9.715-9.781-14.574-23.439-14.574-40.959c0-17.248,5.336-31.225,16.006-41.923c10.67-10.706,23.469-16.059,38.4-16.059
			c15.883,0,28.629,4.742,38.244,14.212c9.613,9.483,14.416,21.545,14.416,36.201C1232.535,297.862,1231.824,302.6,1230.393,308.939
			z M1153.084,289.717h53.785c-1.773-16.02-10.635-24.03-26.588-24.03C1165.691,265.687,1156.627,273.697,1153.084,289.717z"/>
		<path d="M1257.383,205.557l25.568-6.136v123.124c0,13.5,4.02,21.543,12.066,24.131c-3.953,7.499-10.707,11.254-20.248,11.254
			c-11.592,0-17.387-8.045-17.387-24.139V205.557z"/>
		<path d="M1319.152,205.557l25.566-6.136v123.124c0,13.5,4.021,21.543,12.064,24.131c-3.953,7.499-10.703,11.254-20.248,11.254
			c-11.592,0-17.383-8.045-17.383-24.139V205.557z"/>
	</g>
</g>
</svg>
