<?xml version="1.0" encoding="utf-8"?>
<!-- Generator: Adobe Illustrator 16.0.0, SVG Export Plug-In . SVG Version: 6.00 Build 0)  -->
<!DOCTYPE svg PUBLIC "-//W3C//DTD SVG 1.1//EN" "http://www.w3.org/Graphics/SVG/1.1/DTD/svg11.dtd">
<svg version="1.1" id="Layer_1" xmlns="http://www.w3.org/2000/svg" xmlns:xlink="http://www.w3.org/1999/xlink" x="0px" y="0px"
	 width="960px" height="560px" viewBox="0 0 960 560" enable-background="new 0 0 960 560" xml:space="preserve">
<g>
	<path stroke="#0000FF" stroke-width="4" stroke-miterlimit="10" d="M798.187,86.321H372.609c1.211-2.634,1.905-5.557,1.905-8.646
		V50.007c0-11.461-9.291-20.752-20.752-20.752H232.714c-11.461,0-20.751,9.291-20.751,20.752v27.668c0,3.09,0.693,6.013,1.904,8.646
		h-52.054c-11.461,0-20.752,9.291-20.752,20.751v402.921c0,11.461,9.291,20.752,20.752,20.752h636.373
		c11.46,0,20.752-9.291,20.752-20.752V107.072C818.938,95.612,809.646,86.321,798.187,86.321z"/>
	<g>
		<polygon fill="#FFFFFF" stroke="#000000" stroke-miterlimit="10" points="442.976,308.513 412.052,277.592 412.032,277.611 
			277.549,143.126 246.626,174.047 381.111,308.533 246.626,443.018 277.549,473.941 412.034,339.456 412.052,339.475 
			442.976,308.554 442.954,308.533 		"/>
		<rect x="479.425" y="428.572" fill="#FFFFFF" stroke="#000000" stroke-miterlimit="10" width="233.95" height="43.731"/>
	</g>
</g>
</svg>
